<svg width="24" height="24" viewBox="0 0 24 24" fill="none" xmlns="http://www.w3.org/2000/svg">
<circle cx="12" cy="12" r="12" fill="#0D0D0D"/>
<path d="M18.6667 7.86681C18.1656 8.0842 17.6357 8.22792 17.0934 8.29347C17.6655 7.95169 18.0942 7.41399 18.3 6.78014C17.7624 7.10018 17.1739 7.32567 16.56 7.44681C16.1497 7.00185 15.6034 6.70567 15.0066 6.60471C14.4098 6.50374 13.7964 6.60371 13.2626 6.88893C12.7287 7.17415 12.3047 7.62849 12.0569 8.1807C11.8091 8.7329 11.7516 9.35173 11.8934 9.94014C10.8063 9.88516 9.743 9.60211 8.77248 9.10938C7.80195 8.61665 6.94594 7.92527 6.26004 7.08014C6.01947 7.50025 5.89305 7.97602 5.89337 8.46014C5.89252 8.90973 6.00285 9.35255 6.21454 9.74918C6.42624 10.1458 6.73272 10.4839 7.10671 10.7335C6.67203 10.7216 6.24663 10.605 5.86671 10.3935V10.4268C5.86997 11.0567 6.0907 11.6662 6.49158 12.1521C6.89246 12.638 7.44888 12.9706 8.06671 13.0935C7.82888 13.1659 7.58196 13.204 7.33337 13.2068C7.1613 13.2048 6.98966 13.1892 6.82004 13.1601C6.99598 13.702 7.33646 14.1756 7.79409 14.5149C8.25173 14.8543 8.80376 15.0425 9.37337 15.0535C8.41151 15.8103 7.22396 16.2234 6.00004 16.2268C5.7772 16.2275 5.55453 16.2142 5.33337 16.1868C6.58299 16.9936 8.03925 17.422 9.52671 17.4201C10.5532 17.4308 11.5715 17.2368 12.5221 16.8495C13.4728 16.4622 14.3367 15.8894 15.0635 15.1645C15.7903 14.4395 16.3653 13.5771 16.7551 12.6274C17.1448 11.6778 17.3414 10.66 17.3334 9.63347C17.3334 9.52014 17.3334 9.40014 17.3334 9.28014C17.8565 8.89001 18.3077 8.41176 18.6667 7.86681V7.86681Z" fill="white"/>
</svg>
